<mxfile host="app.diagrams.net" modified="2020-12-07T21:00:05.396Z" agent="5.0 (Macintosh)" etag="O0NhGZusLBBf1n6bBd0U" version="13.11.0" type="github">
  <diagram id="SYPqjXEzTt1LGPVMylnz" name="Page-1">
    <mxGraphModel dx="1570" dy="515" grid="1" gridSize="10" guides="1" tooltips="1" connect="1" arrows="1" fold="1" page="1" pageScale="1" pageWidth="850" pageHeight="1100" math="0" shadow="0">
      <root>
        <mxCell id="0" />
        <mxCell id="1" parent="0" />
        <mxCell id="-Zc8FcA2bppMCR0Q_K8C-3" value="&lt;h3&gt;Goal - To match vulnerable people with Volunteers&lt;br&gt;&lt;/h3&gt;" style="edgeStyle=orthogonalEdgeStyle;rounded=0;orthogonalLoop=1;jettySize=auto;html=1;exitX=1;exitY=1;exitDx=0;exitDy=0;entryX=1;entryY=0.75;entryDx=0;entryDy=0;" edge="1" parent="1">
          <mxGeometry x="1" y="190" relative="1" as="geometry">
            <mxPoint x="50" y="80" as="sourcePoint" />
            <mxPoint x="50" y="65" as="targetPoint" />
            <mxPoint as="offset" />
          </mxGeometry>
        </mxCell>
        <mxCell id="-Zc8FcA2bppMCR0Q_K8C-4" value="Text" style="text;html=1;strokeColor=none;fillColor=none;align=center;verticalAlign=middle;whiteSpace=wrap;rounded=0;" vertex="1" parent="1">
          <mxGeometry x="370" y="260" width="40" height="20" as="geometry" />
        </mxCell>
        <mxCell id="-Zc8FcA2bppMCR0Q_K8C-6" value="&lt;div&gt;Login / Register&lt;/div&gt;&lt;div&gt;&lt;br&gt;&lt;/div&gt;&lt;div&gt;Language&lt;br&gt;&lt;/div&gt;" style="whiteSpace=wrap;html=1;aspect=fixed;" vertex="1" parent="1">
          <mxGeometry x="-460" y="190" width="80" height="80" as="geometry" />
        </mxCell>
        <mxCell id="-Zc8FcA2bppMCR0Q_K8C-7" value="Text" style="text;html=1;strokeColor=none;fillColor=none;align=center;verticalAlign=middle;whiteSpace=wrap;rounded=0;" vertex="1" parent="1">
          <mxGeometry x="-100" y="260" width="40" height="20" as="geometry" />
        </mxCell>
        <mxCell id="-Zc8FcA2bppMCR0Q_K8C-10" value="" style="html=1;shadow=0;dashed=0;align=center;verticalAlign=middle;shape=mxgraph.arrows2.sharpArrow2;dy1=0.67;dx1=18;dx2=18;dy3=0.15;dx3=27;notch=0;" vertex="1" parent="1">
          <mxGeometry x="-360" y="200" width="100" height="60" as="geometry" />
        </mxCell>
        <mxCell id="-Zc8FcA2bppMCR0Q_K8C-11" value="Enter details of person with availabilty &amp;amp; driving skills. Location &amp;amp; times" style="whiteSpace=wrap;html=1;aspect=fixed;" vertex="1" parent="1">
          <mxGeometry x="-230" y="150" width="170" height="170" as="geometry" />
        </mxCell>
        <mxCell id="-Zc8FcA2bppMCR0Q_K8C-12" value="Text" style="text;html=1;strokeColor=none;fillColor=none;align=center;verticalAlign=middle;whiteSpace=wrap;rounded=0;" vertex="1" parent="1">
          <mxGeometry x="-140" y="320" width="40" height="20" as="geometry" />
        </mxCell>
        <mxCell id="-Zc8FcA2bppMCR0Q_K8C-13" value="" style="html=1;shadow=0;dashed=0;align=center;verticalAlign=middle;shape=mxgraph.arrows2.arrow;dy=0.6;dx=40;direction=south;notch=0;" vertex="1" parent="1">
          <mxGeometry x="-180" y="323" width="70" height="100" as="geometry" />
        </mxCell>
        <mxCell id="-Zc8FcA2bppMCR0Q_K8C-14" value="Text" style="text;html=1;strokeColor=none;fillColor=none;align=center;verticalAlign=middle;whiteSpace=wrap;rounded=0;" vertex="1" parent="1">
          <mxGeometry x="-140" y="200" width="40" height="20" as="geometry" />
        </mxCell>
        <mxCell id="-Zc8FcA2bppMCR0Q_K8C-15" value="" style="whiteSpace=wrap;html=1;aspect=fixed;" vertex="1" parent="1">
          <mxGeometry x="-220" y="440" width="130" height="130" as="geometry" />
        </mxCell>
        <mxCell id="-Zc8FcA2bppMCR0Q_K8C-16" value="Admin matches volunteer with vulnerable" style="text;html=1;strokeColor=none;fillColor=none;align=center;verticalAlign=middle;whiteSpace=wrap;rounded=0;" vertex="1" parent="1">
          <mxGeometry x="-200" y="467" width="40" height="20" as="geometry" />
        </mxCell>
        <mxCell id="-Zc8FcA2bppMCR0Q_K8C-17" value="" style="html=1;shadow=0;dashed=0;align=center;verticalAlign=middle;shape=mxgraph.arrows2.arrow;dy=0.6;dx=40;direction=south;notch=0;" vertex="1" parent="1">
          <mxGeometry x="-190" y="570" width="70" height="100" as="geometry" />
        </mxCell>
        <mxCell id="-Zc8FcA2bppMCR0Q_K8C-18" value="Deploy/Deliver" style="whiteSpace=wrap;html=1;aspect=fixed;" vertex="1" parent="1">
          <mxGeometry x="-195" y="670" width="80" height="80" as="geometry" />
        </mxCell>
      </root>
    </mxGraphModel>
  </diagram>
</mxfile>
